<svg height="448pt" viewBox="0 0 448 448.768" width="448pt" xmlns="http://www.w3.org/2000/svg"><path style="fill:#ffffff;stroke:#000000" d="m224.484375 251.496094c6.714844 0 10.898437-3.71875 10.898437-11.878906v-1.339844c0-8.574219-4.183593-11.777344-11-11.777344-6.507812 0-11 3-11 10.847656v2.269532c0 8.167968 4.289063 11.878906 11.101563 11.878906zm0 0"/><path style="fill:#ffffff;stroke:#000000" d="m128.511719 128.511719c-6.964844 31.476562-10.410157 63.632812-10.28125 95.871093-.128907 32.242188 3.316406 64.394532 10.28125 95.875 31.476562 6.960938 63.632812 10.410157 95.871093 10.277344 32.242188.132813 64.394532-3.316406 95.875-10.277344 6.960938-31.480468 10.410157-63.632812 10.277344-95.875.132813-32.238281-3.316406-64.394531-10.277344-95.871093-31.480468-6.964844-63.632812-10.410157-95.875-10.28125-32.238281-.128907-64.394531 3.316406-95.871093 10.28125zm52.871093 111.003906c0 16.628906-10.957031 22.929687-24.59375 22.929687-16.9375 0-23.558593-10.429687-23.558593-18.796874 0-4.132813 1.757812-5.269532 6.40625-5.269532 5.472656 0 6.925781 1.445313 6.925781 4.75 0 4.648438 4.140625 7.542969 10.75 7.542969 7.746094 0 11.070312-3.308594 11.070312-11.15625v-1.960937c0-7.644532-4.769531-9.8125-11.378906-9.8125-3 0-4.050781-2.582032-4.050781-5.269532 0-2.582031 1.035156-5.269531 4.03125-5.269531 5.164063 0 9.5-1.238281 9.5-10.121094 0-6.816406-3.515625-9.089843-9.09375-9.089843-6.710937 0-9.199219 2.789062-9.199219 6.921874 0 3.097657-1.453125 5.164063-6.410156 5.164063-5.992188 0-6.933594-1.445313-6.933594-5.785156 0-7.332031 5.140625-17.972657 22.601563-17.972657 12.5 0 21.746093 4.75 21.746093 18.488282 0 8.160156-3.09375 14.773437-8.15625 17.148437 6.097657 2.375 10.34375 7.027344 10.34375 15.597657zm86-29.542969c0-17.246094 10.316407-23.652344 23.949219-23.652344 13.632813 0 24.050781 6.40625 24.050781 23.652344v28.820313c0 17.25-10.414062 23.652343-24.050781 23.652343s-23.949219-6.402343-23.949219-23.652343zm-18.878906-4.75c0 4.234375-2.066406 5.578125-6.300781 5.578125-3.71875 0-7.023437-1.03125-7.023437-5.0625 0-4.851562-4.855469-7.640625-10.535157-7.640625-7.023437 0-11.257812 3.71875-11.257812 11.875v11.261719c3-4.03125 8.304687-5.269531 13.675781-5.269531 11.671875 0 21.324219 5.0625 21.324219 21.382812v1.445313c0 17.25-10.316407 23.652343-23.949219 23.652343s-24.054688-6.402343-24.054688-23.652343v-28.820313c0-17.246094 10.683594-23.652344 24.730469-23.652344 16.527344 0 23.390625 10.226563 23.390625 18.902344zm0 0"/><path style="fill:#ffffff;stroke:#000000" d="m310.683594 57.695312c9.082031 18.953126 16.179687 38.796876 21.175781 59.210938 20.414063 5 40.257813 12.09375 59.210937 21.179688 22.773438 11.136718 40.5 24.226562 52.628907 38.589843-18.753907-85.824219-85.785157-152.855469-171.605469-171.609375 14.363281 12.132813 27.453125 29.855469 38.589844 52.628906zm0 0"/><path style="fill:#ffffff;stroke:#000000" d="m291.332031 250.671875c6.714844 0 11.050781-3.71875 11.050781-11.878906v-28.820313c0-8.15625-4.335937-11.875-11.050781-11.875-6.816406 0-10.949219 3.71875-10.949219 11.875v28.820313c0 8.160156 4.132813 11.878906 10.949219 11.878906zm0 0"/><path style="fill:#ffffff;stroke:#000000" d="m132.296875 113.375c30.304687-6.175781 61.160156-9.238281 92.085937-9.144531 30.929688-.09375 61.785157 2.96875 92.089844 9.144531-4.570312-17.046875-10.71875-33.625-18.367187-49.527344-20.132813-41.171875-46.316407-63.847656-73.722657-63.847656s-53.585937 22.675781-73.722656 63.847656c-7.648437 15.902344-13.796875 32.480469-18.363281 49.527344zm0 0"/><path style="fill:#ffffff;stroke:#000000" d="m384.921875 150.660156c-15.902344-7.648437-32.484375-13.796875-49.527344-18.363281 6.171875 30.304687 9.238281 61.160156 9.140625 92.085937.097656 30.929688-2.96875 61.785157-9.140625 92.089844 17.042969-4.570312 33.625-10.71875 49.527344-18.367187 41.171875-20.132813 63.847656-46.316407 63.847656-73.722657s-22.675781-53.585937-63.847656-73.722656zm0 0"/><path style="fill:#ffffff;stroke:#000000" d="m138.085938 391.070312c-9.085938-18.953124-16.179688-38.796874-21.179688-59.210937-20.414062-4.996094-40.257812-12.09375-59.210938-21.175781-22.773437-11.136719-40.496093-24.226563-52.628906-38.589844 18.753906 85.820312 85.785156 152.851562 171.609375 171.605469-14.363281-12.132813-27.453125-29.855469-38.589843-52.628907zm0 0"/><path style="fill:#ffffff;stroke:#000000" d="m316.472656 335.394531c-30.304687 6.171875-61.160156 9.238281-92.089844 9.140625-30.925781.097656-61.78125-2.96875-92.085937-9.140625 4.566406 17.042969 10.714844 33.625 18.363281 49.527344 20.136719 41.171875 46.316406 63.847656 73.722656 63.847656s53.589844-22.675781 73.722657-63.847656c7.648437-15.902344 13.796875-32.484375 18.367187-49.527344zm0 0"/><path style="fill:#ffffff;stroke:#000000" d="m391.070312 310.683594c-18.953124 9.082031-38.796874 16.179687-59.210937 21.175781-4.996094 20.414063-12.09375 40.257813-21.175781 59.210937-11.136719 22.773438-24.226563 40.5-38.589844 52.628907 85.820312-18.753907 152.851562-85.785157 171.605469-171.605469-12.132813 14.363281-29.855469 27.453125-52.628907 38.589844zm0 0"/><path style="fill:#ffffff;stroke:#000000" d="m64.050781 298.105469c15.839844 7.648437 32.359375 13.796875 49.347657 18.367187-6.164063-30.304687-9.21875-61.164062-9.113282-92.089844-.078125-30.929687 3-61.785156 9.1875-92.085937-17.011718 4.566406-33.558594 10.714844-49.429687 18.363281-41.167969 20.128906-63.660157 46.304688-63.660157 73.707032v.035156c0 27.398437 22.5 53.574218 63.667969 73.703125zm0 0"/><path style="fill:#ffffff;stroke:#000000" d="m57.695312 138.085938c18.953126-9.085938 38.796876-16.179688 59.210938-21.179688 5-20.414062 12.09375-40.257812 21.179688-59.210938 11.136718-22.773437 24.226562-40.496093 38.589843-52.628906-85.824219 18.753906-152.855469 85.785156-171.609375 171.609375 12.132813-14.363281 29.855469-27.453125 52.628906-38.589843zm0 0"/></svg>