<?xml version="1.0" encoding="iso-8859-1"?>
<!-- Generator: Adobe Illustrator 19.0.0, SVG Export Plug-In . SVG Version: 6.00 Build 0)  -->
<svg version="1.1" id="Capa_1" xmlns="http://www.w3.org/2000/svg" xmlns:xlink="http://www.w3.org/1999/xlink" x="0px" y="0px"
	 viewBox="0 0 512 512" style="enable-background:new 0 0 512 512;" xml:space="preserve">
<g>
	<g>
		<g>
			<path style="fill:#ffffff;stroke:#000000" d="M170.667,213.351c-64.801,0-117.333,52.532-117.333,117.333s52.532,117.333,117.333,117.333S288,395.486,288,330.684
				C287.93,265.912,235.439,213.421,170.667,213.351z M266.037,320.017h-54.219c-1.299-5.082-3.531-9.878-6.581-14.144
				c0.309-0.183,0.608-0.382,0.896-0.597l37.195-37.163C255.972,282.721,263.89,300.818,266.037,320.017z M181.333,235.313
				c16.79,1.886,32.777,8.199,46.325,18.293l-36.619,36.544c-0.634,0.716-1.166,1.516-1.579,2.379
				c-2.598-1.29-5.321-2.309-8.128-3.04V235.313z M160,235.313v54.176c-4.25,1.085-8.305,2.823-12.021,5.152l-38.197-38.165
				C124.112,244.698,141.561,237.345,160,235.313z M94.933,271.868l38.496,38.379c-1.705,3.067-3.02,6.335-3.915,9.728H75.296
				C77.265,302.431,84.063,285.778,94.933,271.868z M75.296,341.351h54.219c0.67,2.606,1.588,5.142,2.741,7.573l-38.72,38.677
				C83.473,374.069,77.179,358.109,75.296,341.351z M160,426.055c-19.24-2.169-37.367-10.133-51.979-22.837l37.963-37.867
				c4.235,3.002,8.986,5.2,14.016,6.485V426.055z M149.333,330.684c0-11.782,9.551-21.333,21.333-21.333
				c11.782,0,21.333,9.551,21.333,21.333s-9.551,21.333-21.333,21.333C158.885,352.017,149.333,342.466,149.333,330.684z
				 M181.333,426.055v-54.219c3.405-0.896,6.683-2.214,9.76-3.925l38.464,38.4C215.626,417.239,198.928,424.075,181.333,426.055z
				 M244.885,391.484l-38.197-38.165c2.317-3.701,4.048-7.738,5.131-11.968h54.219C263.994,359.759,256.645,377.176,244.885,391.484
				z"/>
			<path style="fill:#ffffff;stroke:#000000" d="M416.035,10.649C363.016,10.63,320.019,53.595,320,106.614c-0.018,48.905,36.731,90.007,85.333,95.44v111.211
				c-0.069,50.322-36.548,93.2-86.208,101.333c14.563-25.569,22.217-54.489,22.208-83.915c0-94.101-76.565-170.667-170.667-170.667
				S0,236.583,0,330.684s76.565,170.667,170.667,170.667c51.783-0.017,100.746-23.587,133.056-64.053
				c68.039-0.684,122.86-55.989,122.944-124.032V202.055c48.552-5.477,85.267-46.511,85.333-95.371
				C512.019,53.665,469.054,10.669,416.035,10.649z M170.667,480.017c-82.347,0-149.333-66.987-149.333-149.333
				S88.32,181.351,170.667,181.351S320,248.337,320,330.684S253.013,480.017,170.667,480.017z M475.093,152.145l-7.989-7.968
				c-4.171-4.162-10.926-4.155-15.088,0.016c-4.162,4.171-4.155,10.926,0.016,15.088l7.755,7.744
				c-9.776,7.125-21.147,11.75-33.12,13.472v-9.813c0-5.891-4.776-10.667-10.667-10.667s-10.667,4.776-10.667,10.667v9.813
				c-13.618-1.939-26.431-7.618-37.013-16.405l4.832-4.821c4.297-4.03,4.514-10.78,0.484-15.077
				c-4.03-4.297-10.78-4.514-15.077-0.484c-0.165,0.155-0.325,0.314-0.479,0.479l-4.075,4.096
				c-6.223-9.288-10.267-19.863-11.829-30.933H352c5.891,0,10.667-4.776,10.667-10.667S357.891,96.017,352,96.017h-9.813
				c1.755-12.195,6.521-23.761,13.867-33.653c0.658,1.489,1.656,2.804,2.912,3.84l7.723,6.155
				c4.607,3.673,11.319,2.916,14.992-1.691c3.673-4.607,2.916-11.319-1.691-14.992l-7.723-6.155
				c-0.788-0.555-1.649-0.997-2.56-1.312c10.307-8.179,22.602-13.472,35.627-15.339v9.813c0,5.891,4.776,10.667,10.667,10.667
				s10.667-4.776,10.667-10.667v-9.813c32.704,4.755,58.392,30.443,63.147,63.147H480c-5.891,0-10.667,4.776-10.667,10.667
				s4.776,10.667,10.667,10.667h9.813C487.991,130.025,482.92,142.011,475.093,152.145z"/>
			<path style="fill:#ffffff;stroke:#000000" d="M440.459,67.143l-19.008,19.008c-1.774-0.504-3.607-0.773-5.451-0.8c-11.782,0-21.333,9.551-21.333,21.333
				c0,11.782,9.551,21.333,21.333,21.333c11.782,0,21.333-9.551,21.333-21.333c-0.027-1.844-0.296-3.677-0.8-5.451l19.008-19.008
				c4.093-4.237,3.976-10.99-0.262-15.083C451.146,63.15,444.592,63.15,440.459,67.143z"/>
		</g>
	</g>
</g>
<g>
</g>
<g>
</g>
<g>
</g>
<g>
</g>
<g>
</g>
<g>
</g>
<g>
</g>
<g>
</g>
<g>
</g>
<g>
</g>
<g>
</g>
<g>
</g>
<g>
</g>
<g>
</g>
<g>
</g>
</svg>
