<svg height="681pt" viewBox="-21 -21 681.33255 681" width="681pt" xmlns="http://www.w3.org/2000/svg">
	<path style="fill:#ffffff;stroke:#000000" d="m573.722656 118.121094c1.828125 1.828125 4.222656 2.742187 6.617188 2.742187 2.390625 0 4.789062-.914062 6.617187-2.742187 3.648438-3.652344 3.648438-9.578125 0-13.234375l-13.230469-13.230469c-3.660156-3.652344-9.582031-3.652344-13.234374 0-3.65625 3.65625-3.65625 9.582031 0 13.234375zm0 0"/>
	<path style="fill:#ffffff;stroke:#000000" d="m534.023438 78.425781c1.828124 1.828125 4.226562 2.738281 6.617187 2.738281 2.394531 0 4.792969-.910156 6.617187-2.738281 3.65625-3.65625 3.65625-9.578125 0-13.230469l-13.230468-13.230468c-3.652344-3.65625-9.578125-3.65625-13.234375 0-3.648438 3.652344-3.648438 9.574218 0 13.230468zm0 0"/>
	<path style="fill:#ffffff;stroke:#000000" d="m624.527344 195.375-30.945313-30.945312 39.695313-39.699219c7.296875-7.300781 7.296875-19.171875 0-26.464844l-92.625-92.628906c-7.296875-7.292969-19.167969-7.292969-26.46875 0l-39.695313 39.699219-30.953125-30.960938c-4.4375-4.4375-9.636718-7.882812-15.457031-10.230469-5.613281-2.269531-11.523437-3.414062-17.59375-3.414062h-.070313c-6.0625 0-11.976562 1.144531-17.578124 3.414062-5.824219 2.347657-11.015626 5.804688-15.457032 10.246094l-363.71875 363.714844c-4.453125 4.445312-7.894531 9.644531-10.253906 15.472656-2.269531 5.617187-3.421875 11.542969-3.40625 17.605469-.015625 6.0625 1.136719 11.988281 3.40625 17.601562 2.359375 5.828125 5.800781 11.027344 10.253906 15.480469l180.984375 180.988281c4.445313 4.441406 9.648438 7.886719 15.457031 10.242188 5.605469 2.269531 11.53125 3.417968 17.582032 3.417968h.082031c6.054687 0 11.980469-1.148437 17.578125-3.417968 5.816406-2.359375 11.019531-5.800782 15.460938-10.242188l363.722656-363.71875c4.453125-4.441406 7.894531-9.65625 10.25-15.46875 2.261718-5.628906 3.40625-11.539062 3.40625-17.617187 0-6.0625-1.144532-11.988281-3.40625-17.601563-2.355469-5.816406-5.796875-11.03125-10.25-15.472656zm-13.246094 52.9375-363.699219 363.710938c-5.269531 5.253906-12.316406 8.160156-19.863281 8.171874-7.535156-.011718-14.570312-2.917968-19.835938-8.171874l-180.992187-180.992188c-5.269531-5.269531-8.164063-12.316406-8.171875-19.847656.007812-7.535156 2.902344-14.585938 8.171875-19.839844l98.34375-98.34375c.046875-.046875.101563-.101562.136719-.152344.011718 0 .011718 0 .011718-.007812l265.21875-265.21875c5.265626-5.253906 12.316407-8.164063 19.851563-8.171875 7.53125.007812 14.578125 2.917969 19.847656 8.171875l37.5625 37.5625c1.769531 1.769531 4.113281 2.746094 6.625 2.746094 2.355469 0 4.613281-.890626 6.347657-2.496094.089843-.074219.175781-.160156.265624-.25l46.3125-46.308594 92.628907 92.625-39.703125 39.699219-70.132813-70.132813c-1.757812-1.773437-4.117187-2.75-6.613281-2.75-2.492188 0-4.851562.976563-6.613281 2.75-1.773438 1.769532-2.742188 4.113282-2.742188 6.609375 0 2.507813.96875 4.851563 2.742188 6.625l114.3125 114.3125c5.269531 5.269531 8.160156 12.316407 8.175781 19.839844-.015625 7.535156-2.90625 14.582031-8.1875 19.859375zm0 0"/>
	<path style="fill:#ffffff;stroke:#000000" d="m445.082031 187.214844h-37.425781c-5.171875 0-9.359375 4.191406-9.359375 9.359375s4.1875 9.355469 9.359375 9.355469h14.835938l-153.308594 153.308593v-79.394531l44.734375-44.734375c10.867187 5.171875 23.585937 2.882813 31.925781-5.457031 10.9375-10.945313 10.9375-28.753906 0-39.699219-10.945312-10.9375-28.753906-10.9375-39.699219 0-8.621093 8.628906-10.417969 21.492187-5.457031 31.925781l-47.476562 47.472656c-1.753907 1.753907-2.738282 4.132813-2.738282 6.617188v101.976562l-17.105468 17.109376-6.617188-6.617188c-3.65625-3.648438-9.578125-3.648438-13.230469 0l-26.46875 26.46875c-3.648437 3.652344-3.648437 9.574219 0 13.230469l26.46875 26.464843c3.652344 3.652344 9.574219 3.65625 13.230469 0l26.464844-26.464843c3.652344-3.652344 3.65625-9.578125 0-13.230469l-6.617188-6.617188 17.109375-17.105468h101.984375c2.480469 0 4.859375-.984375 6.617188-2.746094l18.957031-18.957031 6.613281 6.617187c3.65625 3.65625 9.574219 3.65625 13.230469 0l26.46875-26.460937c3.652344-3.652344 3.652344-9.578125 0-13.234375l-26.46875-26.460938c-3.648437-3.652344-9.574219-3.65625-13.230469 0l-26.460937 26.460938c-3.65625 3.65625-3.660157 9.582031 0 13.234375l6.613281 6.613281-16.214844 16.21875h-79.394531l153.308594-153.308594v14.839844c0 5.164062 4.183593 9.355469 9.355469 9.355469 5.167968 0 9.355468-4.191407 9.355468-9.355469v-37.425781c-.003906-5.167969-4.195312-9.359375-9.359375-9.359375zm-125.707031 15.976562c3.652344-3.652344 9.582031-3.652344 13.230469-.003906 3.644531 3.648438 3.644531 9.589844 0 13.234375s-9.574219 3.644531-13.226563.003906c-.003906 0-.003906-.003906-.003906-.003906-.003906 0-.003906-.003906-.007812-.003906-3.640626-3.652344-3.636719-9.582031.007812-13.226563zm-99.242188 231.5625-13.234374-13.230468 13.234374-13.230469 6.597657 6.597656c.003906.003906.007812.015625.019531.019531.003906.003906.007812.011719.011719.019532l6.605469 6.597656zm184.359376-104.964844 13.234374 13.230469-13.234374 13.230469-13.230469-13.230469zm0 0"/>
</svg>